<svg width="20" height="12" viewBox="0 0 20 12" fill="none" xmlns="http://www.w3.org/2000/svg">
<path fill-rule="evenodd" clip-rule="evenodd" d="M19.6 1.125C19.6 0.50368 19.1224 0 18.5333 0H17.4667C16.8776 0 16.4 0.50368 16.4 1.125V10.875C16.4 11.4963 16.8776 12 17.4667 12H18.5333C19.1224 12 19.6 11.4963 19.6 10.875V1.125ZM12.1667 2.4H13.2333C13.8224 2.4 14.3 2.91577 14.3 3.552V10.848C14.3 11.4842 13.8224 12 13.2333 12H12.1667C11.5776 12 11.1 11.4842 11.1 10.848V3.552C11.1 2.91577 11.5776 2.4 12.1667 2.4ZM7.83333 5H6.76666C6.17756 5 5.69999 5.52233 5.69999 6.16667V10.8333C5.69999 11.4777 6.17756 12 6.76666 12H7.83333C8.42243 12 8.89999 11.4777 8.89999 10.8333V6.16667C8.89999 5.52233 8.42243 5 7.83333 5ZM2.53333 7.4H1.46666C0.877557 7.4 0.399994 7.91487 0.399994 8.55V10.85C0.399994 11.4851 0.877557 12 1.46666 12H2.53333C3.12243 12 3.59999 11.4851 3.59999 10.85V8.55C3.59999 7.91487 3.12243 7.4 2.53333 7.4Z" fill="white"/>
</svg>
